<svg xmlns="http://www.w3.org/2000/svg" viewBox="0 0 32 32"><g id="Layer_2" data-name="Layer 2"><g id="Layer_1-2" data-name="Layer 1"><rect x="9" y="14" width="2" height="2"/><rect x="9" y="5" width="2" height="2"/><rect x="19" y="5" width="2" height="2"/><rect x="13" y="14" width="2" height="2"/><rect x="9" y="18" width="2" height="2"/><rect x="13" y="18" width="2" height="2"/><path d="M31.55,11.17a1,1,0,0,0-.93-.09L26,13V11a1,1,0,0,0-1-1h-.54A6,6,0,1,0,15,2.69,6,6,0,1,0,5.54,10H5a1,1,0,0,0-1,1v2H1a1,1,0,0,0-1,1v6a1,1,0,0,0,1,1H4v2a1,1,0,0,0,1,1h7.59l-6.3,6.29a1,1,0,0,0,0,1.42,1,1,0,0,0,1.42,0L14,25.41V31a1,1,0,0,0,2,0V25.41l6.29,6.3a1,1,0,0,0,1.42,0,1,1,0,0,0,0-1.42L17.41,24H25a1,1,0,0,0,1-1V21l4.62,1.92A1,1,0,0,0,32,22V12A1,1,0,0,0,31.55,11.17ZM20,2a4,4,0,1,1-4,4A4,4,0,0,1,20,2Zm-4.46,8H14.46A7.12,7.12,0,0,0,15,9.31,7.12,7.12,0,0,0,15.54,10ZM6,6a4,4,0,1,1,4,4A4,4,0,0,1,6,6ZM2,19V15H4v4Zm22,3H6V12H24V22Zm6-1.5-4-1.67V15.17l4-1.67Z"/></g></g></svg>