<svg xmlns="http://www.w3.org/2000/svg" viewBox="0 0 32 32"><g id="Layer_2" data-name="Layer 2"><g id="Layer_1-2" data-name="Layer 1"><path d="M21.36,11.78,13.28,6.25A1.46,1.46,0,0,0,11,7.47V18.53a1.46,1.46,0,0,0,.78,1.3,1.46,1.46,0,0,0,1.5-.08l8.08-5.53a1.48,1.48,0,0,0,0-2.44ZM13,17.51v-9L19.6,13Z"/><path d="M24,30H22.27C22,29.75,21,28.77,21,26H19a8.78,8.78,0,0,0,.8,4H12.2a8.78,8.78,0,0,0,.8-4H11c0,2.75-.94,3.73-1.28,4H8a1,1,0,0,0,0,2H24a1,1,0,0,0,0-2Z"/><path d="M29.27,0H2.73A2.73,2.73,0,0,0,0,2.73V23.27A2.73,2.73,0,0,0,2.73,26H29.27A2.73,2.73,0,0,0,32,23.27V2.73A2.73,2.73,0,0,0,29.27,0ZM30,23.27a.73.73,0,0,1-.73.73H2.73A.73.73,0,0,1,2,23.27V2.73A.73.73,0,0,1,2.73,2H29.27a.73.73,0,0,1,.73.73Z"/></g></g></svg>