<svg xmlns="http://www.w3.org/2000/svg" viewBox="0 0 32 32"><g id="Layer_2" data-name="Layer 2"><g id="Layer_1-2" data-name="Layer 1"><path d="M31,15a1,1,0,0,0,1-1V4a1,1,0,0,0-1-1H27V1a1,1,0,0,0-2,0V3H23V1a1,1,0,0,0-2,0V3H19V1a1,1,0,0,0-2,0V3H15V1a1,1,0,0,0-2,0V3H11V1A1,1,0,0,0,9,1V3H7V1A1,1,0,0,0,5,1V3H1A1,1,0,0,0,0,4V31a1,1,0,0,0,1,1H31a1,1,0,0,0,1-1V23a1,1,0,0,0-2,0v7H2V5H5V7A1,1,0,0,0,7,7V5H9V7a1,1,0,0,0,2,0V5h2V7a1,1,0,0,0,2,0V5h2V7a1,1,0,0,0,2,0V5h2V7a1,1,0,0,0,2,0V5h2V7a1,1,0,0,0,2,0V5h3v9A1,1,0,0,0,31,15Z"/><rect x="7" y="10" width="2" height="2"/><rect x="15" y="10" width="2" height="2"/><rect x="23" y="10" width="2" height="2"/><rect x="7" y="18" width="2" height="2"/><rect x="15" y="18" width="2" height="2"/><rect x="23" y="18" width="2" height="2"/><rect x="7" y="26" width="2" height="2"/><rect x="15" y="26" width="2" height="2"/><rect x="23" y="26" width="2" height="2"/><path d="M29,19a5,5,0,1,0-5,5A5,5,0,0,0,29,19Zm-5,3a3,3,0,1,1,3-3A3,3,0,0,1,24,22Z"/></g></g></svg>